<svg width="485.000000" height="333.000000" viewBox="0 0 485 333" fill="none" xmlns="http://www.w3.org/2000/svg" xmlns:xlink="http://www.w3.org/1999/xlink">
	<desc>
			Created with Pixso.
	</desc>
	<defs>
		<clipPath id="clip1058_27">
			<rect id="undraw_video_game_night_8h8m 1" width="485.000000" height="333.000000" fill="white" fill-opacity="0"/>
		</clipPath>
	</defs>
	<rect id="undraw_video_game_night_8h8m 1" width="485.000000" height="333.000000" fill="#FFFFFF" fill-opacity="0"/>
	<g clip-path="url(#clip1058_27)">
		<path id="Vector" d="M416.377 139.04C423.062 146.077 430.52 147.2 438.752 142.409C435.298 136.853 434.475 130.809 435.396 124.442L419.36 124.442C420.071 130.037 419.88 135.246 416.377 139.04Z" fill="#FFB8B8" fill-opacity="1.000000" fill-rule="nonzero"/>
		<path id="Vector" d="M442.854 323.199L451.431 318.708L455.16 271.171L455.16 246.092L435.396 245.718L440.989 270.797L442.854 323.199Z" fill="#FFB8B8" fill-opacity="1.000000" fill-rule="nonzero"/>
		<path id="Vector" d="M417.992 323.199L409.415 318.708L405.686 271.171L405.686 246.092L425.45 245.718L419.856 270.797L417.992 323.199Z" fill="#FFB8B8" fill-opacity="1.000000" fill-rule="nonzero"/>
		<path id="Vector" d="M404.817 251.332L425.7 249.461L429.056 230.371L433.158 249.087L455.906 247.589C456.403 238.495 455.141 229.134 452.177 219.516L402.206 218.393L404.817 251.332Z" fill="#03183F" fill-opacity="1.000000" fill-rule="nonzero"/>
		<path id="Vector" d="M383.111 179.64L357.991 160.224C357.73 160.023 357.443 159.858 357.138 159.733L353.487 158.242C350.555 157.045 344.969 153.061 347.693 148.96C349.89 145.653 358.297 151.577 359.331 153.771C359.658 154.462 360.194 155.031 360.863 155.398L365.968 158.206C366.092 158.274 366.22 158.335 366.351 158.388L385.787 166.295C386.326 166.515 386.909 166.602 387.488 166.549C388.067 166.497 388.625 166.306 389.116 165.994L392.639 163.751C393.141 163.432 393.712 163.24 394.304 163.193C394.896 163.145 395.49 163.243 396.036 163.478C396.581 163.713 397.062 164.077 397.435 164.54C397.809 165.004 398.064 165.551 398.18 166.136L399.344 172.035C399.512 172.885 399.375 173.766 398.957 174.524C398.539 175.281 397.868 175.866 397.062 176.175L386.641 180.161C386.058 180.385 385.427 180.454 384.808 180.363C384.19 180.272 383.606 180.023 383.111 179.64Z" fill="#FFB8B8" fill-opacity="1.000000" fill-rule="nonzero"/>
		<path id="Vector" d="M387.777 165.494C394.732 163.622 394.002 173.375 399.308 178.17L409.741 169.903L403.698 140.537C402.077 141.002 400.585 141.839 399.342 142.982C398.098 144.125 397.137 145.543 396.533 147.123L387.777 165.494Z" fill="#9C0332" fill-opacity="1.000000" fill-rule="nonzero"/>
		<path id="Vector" d="M400.715 220.265L453.296 220.265C444.786 197.247 445.615 173.574 452.86 149.45C452.982 149.049 452.961 148.618 452.8 148.232C452.639 147.846 452.349 147.528 451.98 147.333L436.888 139.415C430.963 143.284 424.596 142.095 417.869 136.794L401.46 141.286C405.927 168.213 406.054 194.587 400.715 220.265Z" fill="#9C0332" fill-opacity="1.000000" fill-rule="nonzero"/>
		<path id="Vector" d="M413.863 331.991L391.95 332.923C390.996 332.964 390.06 332.649 389.324 332.039C388.587 331.428 388.102 330.566 387.96 329.618C387.818 328.661 388.036 327.685 388.574 326.881C389.111 326.077 389.928 325.503 390.865 325.273L394.582 324.358L409.19 315.86C411.354 318.109 414.334 320.011 417.977 321.631L418.02 327.606C418.028 328.735 417.599 329.823 416.824 330.641C416.048 331.459 414.986 331.943 413.863 331.991Z" fill="#03183F" fill-opacity="1.000000" fill-rule="nonzero"/>
		<path id="Vector" d="M484.783 333L0.17627 333L0.17627 331.798L485 331.798L484.783 333Z" fill="#3F3D56" fill-opacity="0.400000" fill-rule="nonzero"/>
		<path id="Vector" d="M446.801 331.657L468.714 332.589C469.668 332.63 470.604 332.315 471.34 331.705C472.077 331.094 472.562 330.232 472.704 329.284C472.846 328.327 472.628 327.351 472.09 326.547C471.553 325.743 470.736 325.169 469.799 324.939L466.082 324.024L451.474 315.526C449.31 317.775 446.33 319.677 442.687 321.297L442.644 327.272C442.636 328.401 443.065 329.489 443.84 330.307C444.616 331.125 445.677 331.609 446.801 331.657Z" fill="#03183F" fill-opacity="1.000000" fill-rule="nonzero"/>
		<path id="Vector" d="M437.633 119.202C437.633 125.817 432.291 131.18 425.7 131.18C419.109 131.18 413.767 125.817 413.767 119.202C413.767 112.587 419.109 107.224 425.7 107.224C432.291 107.224 437.633 112.587 437.633 119.202Z" fill="#FFB8B8" fill-opacity="1.000000" fill-rule="evenodd"/>
		<path id="Vector" d="M444.346 216.522L440.403 224.216C440.056 224.895 439.855 225.64 439.814 226.403C439.774 227.165 439.895 227.928 440.169 228.64C440.443 229.352 440.864 229.998 441.404 230.536C441.945 231.073 442.592 231.489 443.305 231.757C444.058 232.041 444.866 232.152 445.668 232.081C446.47 232.011 447.246 231.761 447.939 231.35C448.633 230.939 449.225 230.377 449.674 229.706C450.122 229.035 450.416 228.271 450.532 227.472L452.177 216.148L458.144 187.7L457.771 173.477L445.838 173.477C449.908 184.056 447.889 199.66 444.346 216.522Z" fill="#FFB8B8" fill-opacity="1.000000" fill-rule="nonzero"/>
		<path id="Vector" d="M443.973 174.974L460.008 174.974L457.681 157.322C457.365 154.928 456.457 152.652 455.04 150.701C453.622 148.75 451.741 147.186 449.567 146.152L443.973 174.974Z" fill="#9C0332" fill-opacity="1.000000" fill-rule="nonzero"/>
		<path id="Vector" d="M438.387 112.604C438.625 111.004 438.525 109.372 438.093 107.813C437.661 106.255 436.906 104.805 435.879 103.558C433.843 101.14 430.43 99.1609 424.768 100.095C412.415 102.132 408.853 112.454 410.063 115.05C411.273 117.646 414.983 123.664 414.983 123.664C414.983 123.664 412.26 117.707 415.215 116.494C418.17 115.282 429.605 110.505 433.597 112.657C434.726 113.226 435.686 114.086 436.377 115.149C437.068 116.211 437.466 117.439 437.531 118.706L438.387 112.604Z" fill="#03183F" fill-opacity="1.000000" fill-rule="nonzero"/>
		<path id="Vector" d="M234.139 62.7548L229.341 65.1983C223.815 54.276 216.493 44.3669 207.685 35.8878C164.426 -5.85464 95.3993 -4.48993 53.812 38.93C12.2247 82.3499 13.5844 151.634 56.8429 193.377C65.0762 201.338 74.5085 207.945 84.7923 212.957L82.4453 217.816C66.1449 209.872 51.9617 198.148 41.0677 183.615C30.1736 169.081 22.8815 152.153 19.7936 134.231C16.7057 116.309 17.9109 97.907 23.3094 80.545C28.7079 63.1829 38.1449 47.3594 50.8406 34.3818C63.5364 21.4042 79.1264 11.6451 96.3226 5.91077C113.519 0.176453 131.828 -1.36847 149.736 1.40363C167.645 4.17572 184.64 11.1853 199.316 21.8532C213.992 32.5211 225.928 46.5411 234.139 62.7548Z" fill="#E6E6E6" fill-opacity="1.000000" fill-rule="nonzero"/>
		<path id="Vector" d="M71.8174 163.221C64.7602 170.589 60.9081 180.47 61.1087 190.689C61.3092 200.907 65.5459 210.628 72.8867 217.711C80.2275 224.795 90.0711 228.661 100.252 228.46C110.433 228.259 120.117 224.006 127.174 216.638L133.784 209.737L78.4273 156.32L71.8174 163.221Z" fill="#E6E6E6" fill-opacity="1.000000" fill-rule="nonzero"/>
		<path id="Vector" d="M74.7183 152.4C73.1474 154.044 72.2903 156.246 72.335 158.524C72.3797 160.801 73.3226 162.967 74.9567 164.548L125.73 213.542C127.366 215.121 129.561 215.983 131.831 215.938C134.1 215.893 136.259 214.945 137.832 213.302C139.406 211.66 140.264 209.457 140.22 207.179C140.175 204.901 139.23 202.734 137.594 201.155L86.8206 152.161C85.1829 150.584 82.989 149.724 80.7202 149.769C78.4513 149.814 76.2929 150.76 74.7183 152.4Z" fill="#03183F" fill-opacity="1.000000" fill-rule="nonzero"/>
		<path id="Vector" d="M227.001 112.412L233.611 105.511C240.668 98.1427 244.52 88.2624 244.32 78.0435C244.119 67.8246 239.883 58.1042 232.542 51.0206C228.907 47.5132 224.619 44.7588 219.924 42.9146C215.229 41.0703 210.217 40.1724 205.176 40.272C194.996 40.4733 185.311 44.7258 178.254 52.0939L171.644 58.9952L227.001 112.412Z" fill="#E6E6E6" fill-opacity="1.000000" fill-rule="nonzero"/>
		<path id="Vector" d="M167.596 55.4296C166.025 57.0734 165.168 59.2755 165.213 61.5529C165.258 63.8301 166.2 65.9966 167.835 67.5771L218.608 116.571C220.245 118.148 222.438 119.009 224.707 118.963C226.976 118.917 229.133 117.969 230.706 116.328C232.278 114.686 233.137 112.484 233.093 110.207C233.049 107.93 232.106 105.764 230.472 104.184L179.699 55.1903C178.061 53.6136 175.867 52.7533 173.598 52.7982C171.329 52.843 169.171 53.7894 167.596 55.4296Z" fill="#03183F" fill-opacity="1.000000" fill-rule="nonzero"/>
		<path id="Vector" d="M189.014 168.653L189.014 164.673C189.014 164.673 206.32 154.902 220.381 164.673L220.381 168.292L189.014 168.653Z" fill="#03183F" fill-opacity="1.000000" fill-rule="nonzero"/>
		<path id="Vector" d="M346.569 168.653L346.569 164.673C346.569 164.673 363.875 154.902 377.936 164.673L377.936 168.292L346.569 168.653Z" fill="#03183F" fill-opacity="1.000000" fill-rule="nonzero"/>
		<path id="Vector" d="M240.932 168.292L223.986 168.292C223.986 168.292 219.66 163.225 205.239 163.587C190.817 163.949 187.933 168.292 187.933 168.292C187.933 168.292 173.692 177.881 170.447 189.824C170.447 189.824 152.961 242.478 152.6 283.732C152.24 324.987 168.103 330.777 176.396 331.862C184.688 332.948 199.47 331.501 213.891 294.95L220.021 273.599C220.021 273.599 221.102 260.933 234.082 268.895C247.061 276.856 258.598 264.552 258.598 264.552L307.271 264.552C307.271 264.552 323.495 274.685 338.277 266.724C338.277 266.724 344.045 259.124 349.453 284.818C349.453 284.818 366.038 337.653 391.636 332.224C417.234 326.796 414.35 282.646 414.35 282.646C414.35 282.646 410.925 215.155 396.864 191.271C396.864 191.271 383.344 166.482 374.331 165.397C374.331 165.397 354.861 161.778 347.29 165.035L342.964 168.653L240.932 168.292Z" fill="#E6E6E6" fill-opacity="1.000000" fill-rule="nonzero"/>
		<path id="Vector" d="M233 203.756C233 221.144 218.957 235.24 201.633 235.24C184.31 235.24 170.266 221.144 170.266 203.756C170.266 186.368 184.31 172.272 201.633 172.272C218.957 172.272 233 186.368 233 203.756Z" fill="#03183F" fill-opacity="1.000000" fill-rule="evenodd"/>
		<path id="Vector" d="M396.684 203.756C396.684 221.144 382.64 235.24 365.317 235.24C347.994 235.24 333.95 221.144 333.95 203.756C333.95 186.368 347.994 172.272 365.317 172.272C382.64 172.272 396.684 186.368 396.684 203.756Z" fill="#03183F" fill-opacity="1.000000" fill-rule="evenodd"/>
		<path id="Vector" d="M207.099 196.735L202.917 200.448C202.563 200.761 202.107 200.934 201.635 200.934C201.163 200.934 200.707 200.761 200.353 200.448L196.164 196.735C195.959 196.554 195.795 196.332 195.682 196.082C195.568 195.833 195.509 195.562 195.508 195.288L195.508 185.072C195.509 184.556 195.713 184.062 196.077 183.698C196.441 183.333 196.934 183.129 197.447 183.129L205.83 183.129C206.343 183.128 206.836 183.332 207.2 183.695C207.564 184.059 207.769 184.553 207.77 185.068L207.77 195.281C207.767 195.557 207.706 195.83 207.591 196.081C207.475 196.332 207.307 196.555 207.099 196.735Z" fill="#E6E6E6" fill-opacity="1.000000" fill-rule="nonzero"/>
		<path id="Vector" d="M207.099 210.773L202.917 207.064C202.563 206.751 202.107 206.578 201.635 206.578C201.163 206.578 200.707 206.751 200.353 207.064L196.164 210.777C195.959 210.958 195.795 211.18 195.682 211.43C195.568 211.679 195.509 211.95 195.508 212.224L195.508 222.429C195.507 222.945 195.71 223.439 196.072 223.804C196.435 224.169 196.927 224.375 197.44 224.376L205.83 224.376C206.343 224.377 206.836 224.173 207.2 223.809C207.564 223.446 207.769 222.952 207.77 222.436L207.77 212.228C207.767 211.951 207.706 211.679 207.591 211.428C207.475 211.177 207.307 210.954 207.099 210.773Z" fill="#E6E6E6" fill-opacity="1.000000" fill-rule="nonzero"/>
		<path id="Vector" d="M194.642 209.249L198.341 205.044C198.653 204.689 198.825 204.231 198.825 203.758C198.825 203.284 198.653 202.827 198.341 202.471L194.642 198.266C194.462 198.061 194.24 197.896 193.991 197.782C193.743 197.669 193.473 197.609 193.2 197.608L183.033 197.608C182.519 197.609 182.027 197.814 181.664 198.179C181.301 198.544 181.097 199.039 181.097 199.555L181.097 207.968C181.096 208.484 181.299 208.978 181.661 209.344C182.024 209.709 182.516 209.914 183.029 209.915L193.204 209.915C193.477 209.912 193.746 209.852 193.994 209.737C194.242 209.622 194.463 209.456 194.642 209.249Z" fill="#E6E6E6" fill-opacity="1.000000" fill-rule="nonzero"/>
		<path id="Vector" d="M208.628 209.249L204.936 205.041C204.623 204.686 204.451 204.228 204.451 203.754C204.451 203.28 204.623 202.823 204.936 202.468L208.635 198.263C208.815 198.057 209.037 197.892 209.286 197.778C209.534 197.665 209.804 197.606 210.077 197.604L220.244 197.604C220.758 197.603 221.25 197.807 221.614 198.171C221.978 198.534 222.183 199.028 222.184 199.544L222.184 207.965C222.185 208.48 221.982 208.975 221.619 209.34C221.257 209.705 220.765 209.911 220.251 209.912L210.081 209.912C209.805 209.911 209.534 209.852 209.283 209.738C209.032 209.624 208.809 209.457 208.628 209.249Z" fill="#E6E6E6" fill-opacity="1.000000" fill-rule="nonzero"/>
		<path id="Vector" d="M266.89 238.135C266.89 250.726 256.721 260.933 244.177 260.933C231.632 260.933 221.463 250.726 221.463 238.135C221.463 225.543 231.632 215.336 244.177 215.336C256.721 215.336 266.89 225.543 266.89 238.135Z" fill="#03183F" fill-opacity="1.000000" fill-rule="evenodd"/>
		<path id="Vector" d="M345.487 238.135C345.487 250.726 335.318 260.933 322.774 260.933C310.229 260.933 300.06 250.726 300.06 238.135C300.06 225.543 310.229 215.336 322.774 215.336C335.318 215.336 345.487 225.543 345.487 238.135Z" fill="#03183F" fill-opacity="1.000000" fill-rule="evenodd"/>
		<path id="Vector" d="M259.319 238.135C259.319 246.529 252.54 253.334 244.177 253.334C235.814 253.334 229.034 246.529 229.034 238.135C229.034 229.741 235.814 222.936 244.177 222.936C252.54 222.936 259.319 229.741 259.319 238.135Z" fill="#E6E6E6" fill-opacity="1.000000" fill-rule="evenodd"/>
		<path id="Vector" d="M244.177 248.629C242.109 248.629 240.087 248.014 238.368 246.861C236.648 245.708 235.308 244.068 234.517 242.151C233.726 240.233 233.519 238.123 233.922 236.087C234.325 234.052 235.321 232.182 236.783 230.714C238.246 229.246 240.109 228.247 242.137 227.842C244.165 227.437 246.267 227.645 248.178 228.439C250.088 229.233 251.721 230.578 252.87 232.304C254.019 234.03 254.632 236.059 254.632 238.135C254.629 240.917 253.526 243.585 251.566 245.552C249.606 247.519 246.949 248.626 244.177 248.629ZM244.177 228.364C242.251 228.364 240.369 228.937 238.768 230.011C237.168 231.084 235.92 232.61 235.183 234.396C234.446 236.181 234.254 238.146 234.629 240.041C235.005 241.936 235.932 243.677 237.293 245.044C238.655 246.41 240.389 247.341 242.278 247.718C244.166 248.095 246.123 247.901 247.902 247.162C249.681 246.422 251.201 245.17 252.271 243.563C253.34 241.956 253.911 240.067 253.911 238.135C253.908 235.544 252.882 233.061 251.057 231.229C249.232 229.397 246.758 228.367 244.177 228.364Z" fill="#03183F" fill-opacity="1.000000" fill-rule="nonzero"/>
		<path id="Vector" d="M337.916 238.135C337.916 246.529 331.137 253.334 322.774 253.334C314.411 253.334 307.631 246.529 307.631 238.135C307.631 229.741 314.411 222.936 322.774 222.936C331.137 222.936 337.916 229.741 337.916 238.135Z" fill="#E6E6E6" fill-opacity="1.000000" fill-rule="evenodd"/>
		<path id="Vector" d="M322.774 248.629C320.706 248.629 318.684 248.014 316.965 246.861C315.246 245.708 313.905 244.068 313.114 242.151C312.323 240.233 312.116 238.123 312.519 236.087C312.923 234.052 313.918 232.182 315.381 230.714C316.843 229.246 318.706 228.247 320.734 227.842C322.762 227.437 324.864 227.645 326.775 228.439C328.685 229.233 330.318 230.578 331.467 232.304C332.616 234.03 333.229 236.059 333.229 238.135C333.226 240.917 332.124 243.585 330.163 245.552C328.203 247.519 325.546 248.626 322.774 248.629ZM322.774 228.364C320.849 228.364 318.966 228.937 317.366 230.011C315.765 231.084 314.517 232.61 313.78 234.396C313.044 236.181 312.851 238.146 313.226 240.041C313.602 241.936 314.529 243.677 315.891 245.044C317.252 246.41 318.986 247.341 320.875 247.718C322.763 248.095 324.72 247.901 326.499 247.162C328.278 246.422 329.798 245.17 330.868 243.563C331.937 241.956 332.508 240.067 332.508 238.135C332.505 235.544 331.479 233.061 329.654 231.229C327.829 229.397 325.355 228.367 322.774 228.364Z" fill="#03183F" fill-opacity="1.000000" fill-rule="nonzero"/>
		<path id="Vector" d="M290.686 240.668C290.686 244.265 287.78 247.182 284.196 247.182C280.612 247.182 277.707 244.265 277.707 240.668C277.707 237.07 280.612 234.154 284.196 234.154C287.78 234.154 290.686 237.07 290.686 240.668Z" fill="#03183F" fill-opacity="1.000000" fill-rule="evenodd"/>
		<path id="Vector" d="M275.695 218.926C275.695 219.712 275.06 220.348 274.278 220.348C273.495 220.348 272.861 219.712 272.861 218.926C272.861 218.141 273.495 217.504 274.278 217.504C275.06 217.504 275.695 218.141 275.695 218.926Z" fill="#03183F" fill-opacity="1.000000" fill-rule="evenodd"/>
		<path id="Vector" d="M281.002 218.926C281.002 219.712 280.367 220.348 279.585 220.348C278.802 220.348 278.168 219.712 278.168 218.926C278.168 218.141 278.802 217.504 279.585 217.504C280.367 217.504 281.002 218.141 281.002 218.926Z" fill="#03183F" fill-opacity="1.000000" fill-rule="evenodd"/>
		<path id="Vector" d="M280.295 225.675C280.295 226.461 279.661 227.097 278.878 227.097C278.096 227.097 277.461 226.461 277.461 225.675C277.461 224.89 278.096 224.253 278.878 224.253C279.661 224.253 280.295 224.89 280.295 225.675Z" fill="#03183F" fill-opacity="1.000000" fill-rule="evenodd"/>
		<path id="Vector" d="M285.278 225.831C285.278 226.63 284.632 227.278 283.836 227.278C283.039 227.278 282.394 226.63 282.394 225.831C282.394 225.031 283.039 224.383 283.836 224.383C284.632 224.383 285.278 225.031 285.278 225.831Z" fill="#03183F" fill-opacity="1.000000" fill-rule="evenodd"/>
		<path id="Vector" d="M290.203 225.675C290.203 226.461 289.568 227.097 288.786 227.097C288.003 227.097 287.369 226.461 287.369 225.675C287.369 224.89 288.003 224.253 288.786 224.253C289.568 224.253 290.203 224.89 290.203 225.675Z" fill="#03183F" fill-opacity="1.000000" fill-rule="evenodd"/>
		<path id="Vector" d="M278.172 222.48C278.172 223.265 277.537 223.902 276.755 223.902C275.972 223.902 275.338 223.265 275.338 222.48C275.338 221.694 275.972 221.058 276.755 221.058C277.537 221.058 278.172 221.694 278.172 222.48Z" fill="#03183F" fill-opacity="1.000000" fill-rule="evenodd"/>
		<path id="Vector" d="M282.754 222.574C282.754 223.373 282.108 224.021 281.312 224.021C280.515 224.021 279.87 223.373 279.87 222.574C279.87 221.774 280.515 221.126 281.312 221.126C282.108 221.126 282.754 221.774 282.754 222.574Z" fill="#03183F" fill-opacity="1.000000" fill-rule="evenodd"/>
		<path id="Vector" d="M287.441 222.574C287.441 223.373 286.795 224.021 285.999 224.021C285.202 224.021 284.557 223.373 284.557 222.574C284.557 221.774 285.202 221.126 285.999 221.126C286.795 221.126 287.441 221.774 287.441 222.574Z" fill="#03183F" fill-opacity="1.000000" fill-rule="evenodd"/>
		<path id="Vector" d="M292.326 222.48C292.326 223.265 291.692 223.902 290.909 223.902C290.127 223.902 289.493 223.265 289.493 222.48C289.493 221.694 290.127 221.058 290.909 221.058C291.692 221.058 292.326 221.694 292.326 222.48Z" fill="#03183F" fill-opacity="1.000000" fill-rule="evenodd"/>
		<path id="Vector" d="M285.278 218.955C285.278 219.755 284.632 220.403 283.836 220.403C283.039 220.403 282.394 219.755 282.394 218.955C282.394 218.156 283.039 217.508 283.836 217.508C284.632 217.508 285.278 218.156 285.278 218.955Z" fill="#03183F" fill-opacity="1.000000" fill-rule="evenodd"/>
		<path id="Vector" d="M290.325 218.955C290.325 219.755 289.68 220.403 288.883 220.403C288.087 220.403 287.441 219.755 287.441 218.955C287.441 218.156 288.087 217.508 288.883 217.508C289.68 217.508 290.325 218.156 290.325 218.955Z" fill="#03183F" fill-opacity="1.000000" fill-rule="evenodd"/>
		<path id="Vector" d="M294.45 218.926C294.45 219.712 293.816 220.348 293.033 220.348C292.25 220.348 291.616 219.712 291.616 218.926C291.616 218.141 292.25 217.504 293.033 217.504C293.816 217.504 294.45 218.141 294.45 218.926Z" fill="#03183F" fill-opacity="1.000000" fill-rule="evenodd"/>
		<path id="Vector" d="M230.296 171.376C229.629 171.376 228.99 171.643 228.518 172.116C228.046 172.589 227.781 173.231 227.78 173.901L227.78 181.5C227.781 182.17 228.046 182.811 228.518 183.285C228.99 183.758 229.629 184.024 230.296 184.025L232.099 184.025C232.766 184.024 233.405 183.758 233.876 183.285C234.348 182.811 234.613 182.17 234.614 181.5L234.614 173.901C234.613 173.231 234.348 172.589 233.876 172.116C233.405 171.643 232.766 171.376 232.099 171.376L230.296 171.376Z" fill="#03183F" fill-opacity="1.000000" fill-rule="nonzero"/>
		<path id="Vector" d="M335.573 171.376C334.906 171.376 334.266 171.643 333.795 172.116C333.323 172.589 333.058 173.231 333.057 173.901L333.057 181.5C333.058 182.17 333.323 182.812 333.795 183.285C334.266 183.758 334.906 184.024 335.573 184.025L337.375 184.025C338.042 184.024 338.682 183.758 339.153 183.285C339.625 182.812 339.89 182.17 339.891 181.5L339.891 173.901C339.89 173.231 339.625 172.589 339.153 172.116C338.682 171.643 338.042 171.376 337.375 171.376L335.573 171.376Z" fill="#03183F" fill-opacity="1.000000" fill-rule="nonzero"/>
		<path id="Vector" d="M374.331 184.576C374.331 189.373 370.457 193.261 365.678 193.261C360.899 193.261 357.025 189.373 357.025 184.576C357.025 179.779 360.899 175.891 365.678 175.891C370.457 175.891 374.331 179.779 374.331 184.576Z" fill="#E6E6E6" fill-opacity="1.000000" fill-rule="evenodd"/>
		<path id="Vector" d="M355.943 203.032C355.943 207.829 352.069 211.717 347.29 211.717C342.511 211.717 338.637 207.829 338.637 203.032C338.637 198.236 342.511 194.347 347.29 194.347C352.069 194.347 355.943 198.236 355.943 203.032Z" fill="#E6E6E6" fill-opacity="1.000000" fill-rule="evenodd"/>
		<path id="Vector" d="M393.439 201.947C393.439 206.743 389.565 210.632 384.786 210.632C380.007 210.632 376.133 206.743 376.133 201.947C376.133 197.15 380.007 193.261 384.786 193.261C389.565 193.261 393.439 197.15 393.439 201.947Z" fill="#E6E6E6" fill-opacity="1.000000" fill-rule="evenodd"/>
		<path id="Vector" d="M375.773 221.126C375.773 225.923 371.899 229.812 367.12 229.812C362.341 229.812 358.467 225.923 358.467 221.126C358.467 216.33 362.341 212.441 367.12 212.441C371.899 212.441 375.773 216.33 375.773 221.126Z" fill="#E6E6E6" fill-opacity="1.000000" fill-rule="evenodd"/>
		<path id="Vector" d="M246.61 166.309C244.677 166.312 242.823 167.084 241.456 168.456C240.089 169.828 239.32 171.689 239.318 173.629L239.318 206.018C239.32 207.958 240.089 209.819 241.456 211.191C242.823 212.563 244.677 213.335 246.61 213.338L320.7 213.338C322.634 213.335 324.487 212.563 325.855 211.191C327.222 209.819 327.991 207.958 327.993 206.018L327.993 173.629C327.991 171.689 327.222 169.828 325.855 168.456C324.487 167.084 322.634 166.312 320.7 166.309L246.61 166.309Z" fill="#03183F" fill-opacity="1.000000" fill-rule="nonzero"/>
		<path id="Vector" d="M371.556 188.557L359.822 188.557L365.487 178.81L371.556 188.557ZM361.078 187.833L370.255 187.833L365.508 180.21L361.078 187.833Z" fill="#03183F" fill-opacity="1.000000" fill-rule="nonzero"/>
		<path id="Vector" d="M352.158 207.375L342.423 207.375L342.423 198.69L352.158 198.69L352.158 207.375ZM343.144 206.651L351.437 206.651L351.437 199.413L343.144 199.413L343.144 206.651Z" fill="#03183F" fill-opacity="1.000000" fill-rule="nonzero"/>
		<path id="Vector" d="M384.786 207.375C383.717 207.375 382.671 207.056 381.782 206.46C380.892 205.863 380.199 205.016 379.79 204.024C379.38 203.032 379.273 201.94 379.482 200.888C379.691 199.835 380.206 198.867 380.962 198.108C381.718 197.349 382.682 196.832 383.731 196.623C384.78 196.413 385.867 196.521 386.856 196.932C387.844 197.342 388.689 198.038 389.283 198.931C389.877 199.823 390.194 200.873 390.194 201.946C390.193 203.386 389.622 204.765 388.608 205.783C387.595 206.801 386.22 207.373 384.786 207.375ZM384.786 197.242C383.859 197.242 382.953 197.518 382.182 198.035C381.411 198.552 380.811 199.287 380.456 200.146C380.101 201.006 380.008 201.952 380.189 202.864C380.37 203.777 380.816 204.615 381.472 205.273C382.127 205.931 382.963 206.379 383.872 206.561C384.781 206.742 385.723 206.649 386.58 206.293C387.436 205.937 388.168 205.334 388.683 204.56C389.198 203.786 389.473 202.877 389.473 201.946C389.472 200.699 388.977 199.503 388.099 198.621C387.22 197.74 386.029 197.243 384.786 197.242Z" fill="#03183F" fill-opacity="1.000000" fill-rule="nonzero"/>
		<path id="Vector" d="M362.719 217.311L363.229 216.799L371.341 224.942L370.831 225.453L362.719 217.311Z" fill="#03183F" fill-opacity="1.000000" fill-rule="evenodd"/>
		<path id="Vector" d="M362.725 224.755L371.016 216.793L371.515 217.316L363.223 225.279L362.725 224.755Z" fill="#03183F" fill-opacity="1.000000" fill-rule="evenodd"/>
		<path id="Vector" d="M76.6379 83.6163C56.9526 89.0637 35.3963 93.1644 27.6724 86.8027C31.9013 79.7361 34.3405 72.7711 34.5474 65.9327C34.594 62.8037 35.8566 59.8168 38.0659 57.6089C39.5285 56.1907 41.2939 55.1256 43.2281 54.4948C45.1622 53.864 47.2141 53.6839 49.228 53.9683L54.3368 54.6879C54.5088 54.7121 54.6799 54.7396 54.85 54.7703C57.3022 55.2366 59.5473 56.462 61.2702 58.2744C62.9931 60.0869 64.1073 62.3953 64.4563 64.8758C65.5327 72.2911 69.1522 78.7106 76.6379 83.6163Z" fill="#03183F" fill-opacity="1.000000" fill-rule="nonzero"/>
		<path id="Vector" d="M95.6268 153.967L103.28 155.55C103.864 155.671 104.415 155.922 104.891 156.283C105.367 156.644 105.757 157.107 106.033 157.638C106.309 158.169 106.463 158.756 106.485 159.354C106.507 159.953 106.395 160.549 106.159 161.099C105.931 161.631 105.591 162.107 105.163 162.495C104.736 162.883 104.229 163.174 103.68 163.349C103.13 163.523 102.549 163.577 101.976 163.506C101.404 163.435 100.853 163.242 100.362 162.938L88.6559 155.712L68.7724 108.795L79.071 105.805L95.6268 153.967Z" fill="#A0616A" fill-opacity="1.000000" fill-rule="nonzero"/>
		<path id="Vector" d="M41.1101 215.53L35.3156 217.222L30.9294 208.129L35.3897 205.796L41.1101 215.53Z" fill="#A0616A" fill-opacity="1.000000" fill-rule="nonzero"/>
		<path id="Vector" d="M38.1659 254.487L31.0562 252.597L32.1692 240.337L38.2878 240.715L38.1659 254.487Z" fill="#A0616A" fill-opacity="1.000000" fill-rule="nonzero"/>
		<path id="Vector" d="M38.9073 207.031L31.3772 212.005L2.41554 179.123C1.78734 178.41 1.32343 177.567 1.05685 176.653C0.790268 175.739 0.727539 174.778 0.873154 173.837C1.01875 172.897 1.36909 172 1.89928 171.21C2.42944 170.421 3.12642 169.759 3.9406 169.27L40.0197 147.632L45.5456 163.565L26.7591 181.26L38.9073 207.031Z" fill="#03183F" fill-opacity="1.000000" fill-rule="nonzero"/>
		<path id="Vector" d="M45.2488 224.243C45.2299 224.267 45.211 224.292 45.192 224.316C44.7108 227.145 43.8655 229.725 41.9779 231.592C41.4183 232.859 40.4134 233.875 39.1552 234.445C37.8969 235.016 36.4734 235.101 35.1565 234.685C33.9146 234.292 32.847 233.479 32.1366 232.384C31.4261 231.288 31.1168 229.979 31.2615 228.681L32.6686 216.057C36.044 215.278 38.6183 213.351 39.9213 209.603L43.2017 211.845C44.1725 212.504 44.9994 213.354 45.632 214.343C46.2647 215.333 46.6898 216.442 46.8813 217.602C47.0729 218.762 47.0269 219.949 46.7463 221.091C46.4656 222.233 45.9561 223.305 45.2488 224.243Z" fill="#03183F" fill-opacity="1.000000" fill-rule="nonzero"/>
		<path id="Vector" d="M60.4087 69.2795C60.4087 75.7044 55.2196 80.9128 48.8186 80.9128C42.4176 80.9128 37.2286 75.7044 37.2286 69.2795C37.2286 62.8546 42.4176 57.6462 48.8186 57.6462C55.2196 57.6462 60.4087 62.8546 60.4087 69.2795Z" fill="#A0616A" fill-opacity="1.000000" fill-rule="evenodd"/>
		<path id="Vector" d="M58.8556 87.8765L40.584 103.065L39.1609 96.8133L42.3502 91.9337C43.2352 87.1462 42.6638 81.8669 41.143 76.267L53.0639 76.278C53.5785 80.8033 55.3338 84.7511 58.8556 87.8765Z" fill="#A0616A" fill-opacity="1.000000" fill-rule="nonzero"/>
		<path id="Vector" d="M63.9998 127.719L39.333 135.26L37.4139 126.455C32.7913 120.225 30.7818 114.538 33.8061 109.899L32.2842 102.916C36.6499 99.4654 40.083 95.9354 41.9681 92.2727L57.1447 86.3204L68.3015 87.0095L71.5961 98.0912L63.9998 127.719Z" fill="#9C0332" fill-opacity="1.000000" fill-rule="nonzero"/>
		<path id="Vector" d="M81.5239 107.044C76.2659 106.988 71.12 108.571 66.7958 111.574L68.3016 87.0094C69.83 87.2143 71.279 87.815 72.5059 88.7526C73.7328 89.6901 74.6955 90.9321 75.2991 92.3563L81.5239 107.044Z" fill="#9C0332" fill-opacity="1.000000" fill-rule="nonzero"/>
		<path id="Vector" d="M38.8302 243.649L31.001 241.716L32.1534 174.943L42.6665 163.387L40.3132 148.737L38.7904 132.326L64.4704 125.935C73.1504 141.754 78.3968 156.137 70.7386 165.121L38.8302 243.649Z" fill="#03183F" fill-opacity="1.000000" fill-rule="nonzero"/>
		<path id="Vector" d="M37.032 266.194C36.9968 266.208 36.9617 266.222 36.9265 266.235C34.6531 268.885 32.1553 271.046 29.0149 271.805C27.6374 272.775 25.9523 273.201 24.2814 273.003C22.6105 272.805 21.0709 271.996 19.9565 270.731C18.9054 269.538 18.3001 268.015 18.244 266.423C18.1879 264.831 18.6845 263.27 19.6489 262.005L29.0222 249.711C33.0341 251.027 36.9283 250.64 40.6358 247.548L42.6568 251.959C43.2581 253.258 43.5894 254.668 43.6302 256.1C43.671 257.533 43.4206 258.958 42.8943 260.291C42.3679 261.623 41.5766 262.833 40.5687 263.848C39.5608 264.863 38.3574 265.662 37.032 266.194Z" fill="#03183F" fill-opacity="1.000000" fill-rule="nonzero"/>
		<path id="Vector" d="M8.43182 161.998L1.55986 167.904C0.989594 168.394 0.551834 169.021 0.287125 169.726C0.0224304 170.431 -0.0606384 171.192 0.045639 171.938C0.151917 172.683 0.444092 173.39 0.895081 173.993C1.34605 174.595 1.94125 175.074 2.6255 175.384C3.65558 175.85 4.82375 175.907 5.89388 175.542C6.96402 175.178 7.85626 174.419 8.39027 173.419L13.3597 164.116L36.1491 122.373L27.578 120.755L8.43182 161.998Z" fill="#A0616A" fill-opacity="1.000000" fill-rule="nonzero"/>
		<path id="Vector" d="M37.5223 123.545C33.071 122.196 28.9015 121.402 25.6678 122.45C26.3456 114.031 27.7427 106.51 32.2842 102.916L38.7402 103.677L37.5223 123.545Z" fill="#9C0332" fill-opacity="1.000000" fill-rule="nonzero"/>
		<path id="Vector" d="M61.7571 66.5821L36.9682 65.0511L37.2732 60.0749C45.9265 54.2183 54.1895 54.7286 62.0622 61.6058L61.7571 66.5821Z" fill="#03183F" fill-opacity="1.000000" fill-rule="nonzero"/>
	</g>
</svg>
